<svg preserveAspectRatio="none" overflow="visible" style="display: block;" width="54.4993" height="40.6529" viewBox="0 0 54.4993 40.6529" fill="none" xmlns="http://www.w3.org/2000/svg">
<path id="Vector" d="M29.01 40.6402C23.4 40.6202 17.57 40.5002 12.88 40.4002C9.97 40.3402 7.67001 40.2902 6.29001 40.2802C2.44001 40.2702 0.100004 34.3102 0.0200043 34.1202L0 34.0702V34.0102C0.02 33.9102 1.39 24.2102 2.39 19.2902C2.52 18.6402 2.65001 17.9102 2.79001 17.1402C3.77001 11.7102 5.1 4.28019 9.84 3.40019C15.08 2.42019 24.36 1.63019 24.45 1.62019C24.66 1.60019 45.57 -0.0198163 50.86 0.000183668C51.69 0.000183668 51.94 0.0401855 52.05 0.0801855C53.7 0.540186 54.89 0.870185 54.38 3.15019C53.93 5.21019 52.17 14.2002 51.42 18.9002C50.69 23.4802 50.46 34.4402 50.46 34.5502C50.46 34.6902 50.77 39.7802 41.11 40.4002C38.24 40.5802 34.28 40.6702 29.01 40.6502V40.6402ZM0.410004 34.0002C0.650004 34.4902 2.58 38.2702 5.95 38.2902C7.33 38.2902 9.63 38.3402 12.55 38.4102C17.24 38.5102 23.07 38.6302 28.68 38.6502C33.94 38.6702 37.89 38.5802 40.75 38.4002C49.96 37.8102 50.05 34.5702 50.05 34.5402C50.05 34.4202 50.28 23.4302 51.01 18.8302C51.76 14.1302 53.52 5.12019 53.98 3.05019C54.4 1.15019 53.58 0.92019 51.94 0.46019C51.85 0.44019 51.61 0.400185 50.85 0.400185C45.58 0.380185 24.68 2.01019 24.47 2.02019C24.38 2.02019 15.12 2.82019 9.90001 3.80019C5.44001 4.63019 4.08001 12.2002 3.18001 17.2102C3.04001 17.9902 2.91 18.7202 2.78 19.3702C1.83 24.0702 0.530004 33.1702 0.410004 34.0002Z" fill="#F05F51"/>
</svg>
