<svg preserveAspectRatio="none" overflow="visible" style="display: block;" width="43.88" height="20.4652" viewBox="0 0 43.88 20.4652" fill="none" xmlns="http://www.w3.org/2000/svg">
<path id="Vector" d="M0.00999451 20.4652C0.00999451 20.4652 9.79 18.6452 12.13 17.3152C14.77 15.8152 15.22 12.0952 16.05 8.7452C17.11 4.4852 20.59 -0.814797 25.47 0.105203C30.57 1.0752 30.7 5.08521 31.19 7.80521C31.98 12.2052 31.19 16.2652 33.01 16.3452C34.55 16.4052 43.88 17.1352 43.88 17.1352L29.47 17.6852C29.47 17.6852 30.38 3.9452 26.16 2.4152C22.96 1.2552 21.72 2.62521 20.29 4.37521C18.24 6.88521 17.72 10.6652 17.58 13.5852C17.43 16.6152 18.08 18.6352 17.28 19.2952C16.48 19.9652 0 20.4652 0 20.4652H0.00999451Z" fill="#E74A42"/>
</svg>
